<?xml version="1.0" standalone="no"?>
<!DOCTYPE svg PUBLIC "-//W3C//DTD SVG 20010904//EN"
 "http://www.w3.org/TR/2001/REC-SVG-20010904/DTD/svg10.dtd">
<svg version="1.0" xmlns="http://www.w3.org/2000/svg"
 width="1024.000000pt" height="1024.000000pt" viewBox="0 0 1024.000000 1024.000000"
 preserveAspectRatio="xMidYMid meet">
<metadata>
Created by potrace 1.11, written by Peter Selinger 2001-2013
</metadata>
<g transform="translate(0.000000,1024.000000) scale(0.100000,-0.100000)"
fill="#000000" stroke="none">
<path d="M4420 8512 c-349 -174 -637 -319 -640 -322 -3 -3 -147 -75 -320 -160
-173 -85 -317 -157 -320 -160 -10 -10 -445 -224 -452 -222 -5 1 -8 -3 -8 -9 0
-5 -4 -8 -9 -5 -5 4 -11 3 -13 -1 -2 -7 -512 -265 -528 -268 -3 0 -30 -14 -60
-30 -56 -29 -131 -67 -140 -70 -13 -4 -66 -30 -70 -35 -3 -3 -69 -36 -148 -75
l-142 -70 0 -2257 0 -2257 32 -18 c18 -9 35 -18 38 -18 16 -3 426 -211 428
-218 2 -4 8 -5 13 -1 5 3 9 1 9 -3 0 -5 17 -15 38 -22 20 -8 45 -21 56 -30 10
-9 20 -15 22 -13 2 1 32 -12 67 -30 34 -18 64 -32 67 -33 3 0 25 -12 50 -25
25 -13 47 -25 50 -25 4 -1 95 -47 315 -158 33 -17 62 -31 65 -32 3 -1 43 -21
90 -45 47 -24 87 -44 90 -45 3 0 21 -9 40 -20 19 -11 37 -20 40 -20 13 -3 275
-137 287 -146 7 -7 13 -8 13 -5 0 4 13 -2 29 -13 15 -11 31 -18 35 -14 3 3 6
1 6 -5 0 -7 3 -11 8 -10 4 1 27 -9 52 -22 25 -13 47 -25 50 -25 3 -1 174 -86
380 -190 659 -331 735 -369 740 -370 3 0 39 -19 80 -40 41 -21 78 -38 83 -37
4 1 7 -2 7 -8 0 -5 8 -10 18 -10 10 0 24 -6 31 -13 6 -6 15 -12 19 -13 14 -2
142 -66 147 -74 3 -5 18 -11 33 -15 25 -5 109 27 172 65 8 5 151 77 316 159
166 82 310 154 320 160 11 6 78 39 149 74 72 36 257 128 413 206 155 77 285
141 289 141 4 0 14 6 22 13 9 7 54 30 101 52 47 22 87 42 90 45 3 3 43 23 90
45 47 22 87 42 90 45 8 8 65 32 66 28 1 -1 10 4 20 12 11 8 120 65 244 125
124 61 227 112 230 115 3 3 79 41 170 85 91 44 173 86 183 94 9 8 17 11 17 7
0 -4 12 1 28 11 15 10 52 30 82 43 30 14 57 27 60 30 8 9 235 117 241 116 4 0
15 6 25 15 11 8 38 24 62 34 41 17 42 20 42 64 1 64 1 4052 0 4283 l0 188
-1770 885 c-973 487 -1776 885 -1782 884 -7 0 -299 -143 -648 -317z"/>
</g>
</svg>
